<svg width="13" height="17" viewBox="0 0 13 17" fill="none" xmlns="http://www.w3.org/2000/svg">
<path d="M6.79388 0C2.277 0 0 3.22875 0 5.91975C0 7.551 0.61875 9 1.94625 9.54113C2.1645 9.63 2.35913 9.5445 2.42213 9.30487C2.46713 9.13725 2.57063 8.71762 2.61675 8.54325C2.68088 8.30587 2.655 8.2215 2.4795 8.0145C2.097 7.5645 1.85175 6.98175 1.85175 6.156C1.85175 3.76088 3.6495 1.61663 6.53175 1.61663C9.0855 1.61663 10.4872 3.1725 10.4872 5.24925C10.4872 7.983 9.2745 10.2892 7.4745 10.2892C6.47888 10.2892 5.73525 9.468 5.97375 8.46225C6.2595 7.26188 6.813 5.96588 6.813 5.09963C6.813 4.32338 6.39562 3.6765 5.5305 3.6765C4.51463 3.6765 3.69675 4.725 3.69675 6.129C3.69675 7.0245 4.0005 7.62975 4.0005 7.62975L2.77763 12.7935C2.41538 14.3269 2.72362 16.2056 2.7495 16.3958C2.76525 16.5083 2.91037 16.5352 2.97563 16.4497C3.069 16.3282 4.28062 14.8376 4.69125 13.3481C4.80825 12.9262 5.36062 10.7438 5.36062 10.7438C5.69025 11.3715 6.65662 11.925 7.68262 11.925C10.7381 11.925 12.8115 9.14625 12.8115 5.42925C12.8115 2.61788 10.4242 0 6.79388 0Z" fill="white"/>
</svg>
