<svg width="18" height="18" viewBox="0 0 18 18" fill="none" xmlns="http://www.w3.org/2000/svg">
<path d="M13.1169 2.961C13.389 2.961 13.6499 3.0691 13.8423 3.26151C14.0348 3.45392 14.1429 3.71489 14.1429 3.987C14.1429 4.25911 14.0348 4.52008 13.8423 4.71249C13.6499 4.9049 13.389 5.013 13.1169 5.013C12.8447 5.013 12.5838 4.9049 12.3914 4.71249C12.199 4.52008 12.0909 4.25911 12.0909 3.987C12.0909 3.71489 12.199 3.45392 12.3914 3.26151C12.5838 3.0691 12.8447 2.961 13.1169 2.961ZM8.55257 11.4017C8.9269 11.4017 9.29755 11.328 9.64338 11.1847C9.98921 11.0415 10.3034 10.8315 10.5681 10.5668C10.8328 10.3022 11.0428 9.98793 11.186 9.6421C11.3293 9.29627 11.403 8.92561 11.403 8.55129C11.403 8.17696 11.3293 7.8063 11.186 7.46047C11.0428 7.11464 10.8328 6.80042 10.5681 6.53573C10.3034 6.27104 9.98921 6.06108 9.64338 5.91783C9.29755 5.77459 8.9269 5.70086 8.55257 5.70086C7.79659 5.70086 7.07157 6.00117 6.53701 6.53573C6.00245 7.07029 5.70214 7.79531 5.70214 8.55129C5.70214 9.30727 6.00245 10.0323 6.53701 10.5668C7.07157 11.1014 7.79659 11.4017 8.55257 11.4017ZM8.55257 4.16057C9.13558 4.1506 9.71473 4.25681 10.2563 4.47302C10.7978 4.68922 11.2908 5.0111 11.7066 5.41986C12.1225 5.82863 12.4527 6.3161 12.6782 6.85384C12.9036 7.39159 13.0197 7.96884 13.0197 8.55193C13.0197 9.13502 12.9036 9.71227 12.6782 10.25C12.4527 10.7878 12.1225 11.2752 11.7066 11.684C11.2908 12.0928 10.7978 12.4146 10.2563 12.6308C9.71473 12.8471 9.13558 12.9533 8.55257 12.9433C7.40092 12.9236 6.30311 12.4523 5.49565 11.6309C4.68819 10.8095 4.23571 9.70375 4.23571 8.55193C4.23571 7.40011 4.68819 6.29439 5.49565 5.473C6.30311 4.6516 7.40092 4.18028 8.55257 4.16057ZM8.55257 0C10.8733 0 11.1664 0.0102857 12.078 0.0514286C12.9883 0.0925714 13.6106 0.237857 14.1544 0.45C14.7249 0.664286 15.2417 1.00038 15.669 1.43486C16.1036 1.863 16.4404 2.37986 16.6551 2.95071C16.866 3.49457 17.0113 4.11557 17.0537 5.02586C17.0949 5.93871 17.1051 6.22929 17.1051 8.55129C17.1051 10.8746 17.0949 11.1651 17.0537 12.078C17.0113 12.9883 16.866 13.6093 16.6551 14.1531C16.4356 14.7214 16.0997 15.2375 15.6691 15.6683C15.2385 16.0992 14.7225 16.4353 14.1544 16.6551C13.6106 16.866 12.9883 17.01 12.078 17.0524C11.1651 17.0936 10.8746 17.1039 8.55257 17.1039C6.22929 17.1039 5.93871 17.0936 5.02586 17.0524C4.11686 17.01 3.49457 16.866 2.95071 16.6539C2.38015 16.4392 1.86328 16.1027 1.43614 15.6677C1.0012 15.2406 0.664662 14.7237 0.45 14.1531C0.237857 13.6093 0.0938571 12.9883 0.0514286 12.078C0.0102857 11.1651 0 10.8746 0 8.55129C0 6.22929 0.0102857 5.93743 0.0514286 5.02586C0.0938571 4.11557 0.237857 3.49457 0.45 2.94943C0.664662 2.37887 1.0012 1.86199 1.43614 1.43486C1.86341 1.00038 2.38027 0.664286 2.95071 0.45C3.49329 0.237857 4.11557 0.0925714 5.02586 0.0514286C5.93871 0.0102857 6.22929 0 8.55257 0ZM8.55257 1.54029C6.26914 1.54029 5.99786 1.54929 5.09657 1.59171C4.26214 1.629 3.81086 1.76786 3.50871 1.88486C3.1371 2.02205 2.80099 2.24085 2.52514 2.52514C2.24131 2.80112 2.02296 3.13722 1.88614 3.50871C1.76786 3.80957 1.629 4.26214 1.59043 5.09657C1.55057 5.99786 1.54157 6.26786 1.54157 8.55129C1.54157 10.8347 1.55057 11.106 1.59171 12.0073C1.63029 12.8417 1.76786 13.293 1.88614 13.5951C2.02243 13.968 2.241 14.3023 2.52514 14.5787C2.80157 14.8629 3.13714 15.0814 3.50871 15.219C3.80957 15.3347 4.26214 15.4761 5.09657 15.5134C5.99786 15.5546 6.26914 15.5623 8.55257 15.5623C10.836 15.5623 11.106 15.5546 12.0073 15.5134C12.8417 15.4749 13.2943 15.336 13.5964 15.2177C13.9651 15.0754 14.2999 14.8575 14.5794 14.5781C14.8588 14.2987 15.0767 13.9638 15.219 13.5951C15.336 13.2943 15.4761 12.8417 15.5134 12.0073C15.5546 11.106 15.5636 10.836 15.5636 8.55129C15.5636 6.26786 15.5546 5.99786 15.5121 5.09657C15.4749 4.26214 15.336 3.80957 15.219 3.50871C15.0818 3.1371 14.863 2.80099 14.5787 2.52514C14.3032 2.24101 13.9676 2.02222 13.5964 1.88486C13.2943 1.76914 12.8417 1.62771 12.0086 1.59043C11.106 1.54929 10.836 1.54029 8.55257 1.54029Z" fill="white"/>
</svg>
