<svg width="48" height="32" viewBox="0 0 48 32" fill="none" xmlns="http://www.w3.org/2000/svg">
<g clip-path="url(#clip0_2207_543)">
<g clip-path="url(#clip1_2207_543)">
<path d="M45.5 0.5H2.5C1.39543 0.5 0.5 1.39543 0.5 2.5V29.5C0.5 30.6046 1.39543 31.5 2.5 31.5H45.5C46.6046 31.5 47.5 30.6046 47.5 29.5V2.5C47.5 1.39543 46.6046 0.5 45.5 0.5Z" stroke="white"/>
<path fill-rule="evenodd" clip-rule="evenodd" d="M20.0615 23.0748H27.9355V8.9248H20.0615V23.0748Z" fill="#ACACAC"/>
<path fill-rule="evenodd" clip-rule="evenodd" d="M20.5632 16.001C20.5618 14.638 20.8706 13.2925 21.4662 12.0666C22.0619 10.8406 22.9288 9.76628 24.0012 8.92503C20.0922 5.85403 14.4352 6.53203 11.3652 10.439C8.29322 14.348 8.97122 20.005 12.8792 23.075C14.465 24.3212 16.4234 24.9986 18.4402 24.9986C20.4571 24.9986 22.4154 24.3212 24.0012 23.075C22.9291 22.2339 22.0624 21.1599 21.4668 19.9343C20.8711 18.7088 20.5621 17.3637 20.5632 16.001Z" fill="white"/>
<path fill-rule="evenodd" clip-rule="evenodd" d="M38.56 16.001C38.5602 17.6896 38.0852 19.3442 37.1894 20.7755C36.2935 22.2069 35.013 23.3573 33.4942 24.0953C31.9753 24.8332 30.2795 25.1288 28.6006 24.9484C26.9216 24.768 25.3274 24.1188 24 23.075C27.908 20.005 28.585 14.348 25.515 10.439C25.072 9.87585 24.5634 9.36759 24 8.92499C25.3275 7.8816 26.9217 7.23273 28.6005 7.05251C30.2793 6.87229 31.9749 7.16801 33.4936 7.90587C35.0123 8.64372 36.2927 9.79395 37.1887 11.2251C38.0846 12.6562 38.5598 14.3105 38.56 15.999V16.001Z" fill="#BFBFBF"/>
</g>
</g>
<defs>
<clipPath id="clip0_2207_543">
<rect width="48" height="32" fill="white"/>
</clipPath>
<clipPath id="clip1_2207_543">
<rect width="48" height="32" fill="white"/>
</clipPath>
</defs>
</svg>
