<svg width="48" height="32" viewBox="0 0 48 32" fill="none" xmlns="http://www.w3.org/2000/svg">
<g clip-path="url(#clip0_2207_537)">
<g clip-path="url(#clip1_2207_537)">
<path d="M45.5 0.5H2.5C1.39543 0.5 0.5 1.39543 0.5 2.5V29.5C0.5 30.6046 1.39543 31.5 2.5 31.5H45.5C46.6046 31.5 47.5 30.6046 47.5 29.5V2.5C47.5 1.39543 46.6046 0.5 45.5 0.5Z" stroke="white"/>
<path fill-rule="evenodd" clip-rule="evenodd" d="M19.4345 10.0001L14.3815 21.9951H11.1015L8.61753 12.4211C8.61753 11.9781 8.26353 11.5341 7.90953 11.3571C6.93453 10.9151 5.86953 10.5601 4.89453 10.3821L4.98453 10.0001H10.2145C10.9225 10.0001 11.5445 10.5601 11.6325 11.2681L12.9625 18.1841L16.1545 10.0001H19.4345ZM32.2005 18.0951C32.2005 14.9031 27.8565 14.7261 27.8565 13.3961C27.8565 12.9531 28.2985 12.5091 29.1865 12.4211C30.2485 12.3331 31.3135 12.5091 32.2005 12.9531L32.7315 10.3821C31.8455 10.0271 30.7815 9.8501 29.8065 9.8501C26.7915 9.8501 24.5765 11.4461 24.5765 13.8391C24.5765 15.5241 26.0825 16.4991 27.3245 17.1201C28.5645 17.7391 28.9195 18.0951 28.9195 18.6271C28.9195 19.4241 27.9445 19.7791 27.0595 19.7791C25.9935 19.7791 24.8415 19.5131 23.8665 19.0691L23.3345 21.7291C24.3975 22.1731 25.6395 22.3501 26.7915 22.3501C30.0725 22.1731 32.2005 20.5771 32.2005 18.0951ZM40.2675 21.9951H43.1035L40.6215 10.0001H37.9625C37.3425 10.0001 36.8975 10.3821 36.6325 10.9151L32.0225 21.9951H35.3025L35.9235 20.2221H39.9135L40.2675 21.9951ZM36.8095 17.7391L38.4065 13.2191L39.3805 17.7391H36.8095ZM23.8665 10.0001L21.2965 21.9951H18.1925L20.7635 10.0001H23.8665Z" fill="white"/>
</g>
</g>
<defs>
<clipPath id="clip0_2207_537">
<rect width="48" height="32" fill="white"/>
</clipPath>
<clipPath id="clip1_2207_537">
<rect width="48" height="32" fill="white"/>
</clipPath>
</defs>
</svg>
