<svg width="48" height="32" viewBox="0 0 48 32" fill="none" xmlns="http://www.w3.org/2000/svg">
<g clip-path="url(#clip0_2207_528)">
<g clip-path="url(#clip1_2207_528)">
<path d="M45.5 0.5H2.5C1.39543 0.5 0.5 1.39543 0.5 2.5V29.5C0.5 30.6046 1.39543 31.5 2.5 31.5H45.5C46.6046 31.5 47.5 30.6046 47.5 29.5V2.5C47.5 1.39543 46.6046 0.5 45.5 0.5Z" stroke="white"/>
<path fill-rule="evenodd" clip-rule="evenodd" d="M20.7 24.4L21 22.4H17L19.3 7.80001C19.3 7.80001 19.3 7.70001 19.4 7.70001H25.1C27 7.70001 28.2 8.10001 28.9 8.80001C29.2 9.20001 29.4 9.50001 29.5 9.90001C29.6 10.3 29.6 10.8 29.5 11.5V11.9L29.8 12.1C30.1 12.2 30.3 12.4 30.4 12.6C30.7 12.9 30.8 13.3 30.9 13.8C31 14.3 30.9 14.8 30.8 15.5C30.7 16.2 30.4 16.9 30.1 17.4C29.8 17.9 29.4 18.3 29 18.6C28.6 18.9 28.1 19.1 27.5 19.3C27 19.4 26.3 19.5 25.7 19.5H25.4C25.1 19.5 24.8 19.6 24.5 19.8C24.3 20 24.1 20.3 24.1 20.6V20.8L23.5 24.3V24.5H20.7V24.4Z" fill="#253B80"/>
<path fill-rule="evenodd" clip-rule="evenodd" d="M30.1002 11.6C30.1002 11.7 30.1002 11.8 30.0002 11.9C29.3002 15.7 26.8002 17 23.6002 17H21.9002C21.5002 17 21.2002 17.3 21.1002 17.7L20.3002 23L20.1002 24.5C20.0002 24.8 20.2002 25 20.5002 25H23.4002C23.7002 25 24.0002 24.8 24.1002 24.4V24.3L24.6002 20.8V20.6C24.8002 20.3 25.0002 20 25.4002 20H25.8002C28.6002 20 30.8002 18.9 31.5002 15.5C31.8002 14.1 31.6002 13 30.9002 12.1C30.7002 11.9 30.4002 11.7 30.1002 11.6Z" fill="#BFBFBF"/>
<path fill-rule="evenodd" clip-rule="evenodd" d="M29.3002 11.3C29.2002 11.3 29.1002 11.2 29.0002 11.2C28.9002 11.2 28.8002 11.1 28.6002 11.1C28.2002 11 27.7002 11 27.2002 11H22.8002C22.7002 11 22.6002 11 22.5002 11.1C22.3002 11.2 22.1002 11.4 22.1002 11.6L21.2002 17.5V17.7C21.2002 17.3 21.5002 17 21.9002 17H23.5002C26.7002 17 29.2002 15.7 30.0002 11.9C30.0002 11.8 30.0002 11.7 30.1002 11.6L29.5002 11.3H29.3002Z" fill="#ACACAC"/>
<path fill-rule="evenodd" clip-rule="evenodd" d="M22.1004 11.6C22.1004 11.4 22.3004 11.2 22.5004 11.1C22.6004 11 22.7004 11 22.8004 11H27.2004C27.7004 11 28.2004 11 28.6004 11.1C28.7004 11.1 28.8004 11.1 29.0004 11.2C29.1004 11.2 29.2004 11.3 29.3004 11.3C29.4004 11.3 29.4004 11.3 29.5004 11.4L30.1004 11.7C30.3004 10.3 30.1004 9.3 29.3004 8.5C28.5004 7.4 27.0004 7 25.1004 7H19.5004C19.1004 7 18.8004 7.3 18.7004 7.7L16.4004 22.5C16.4004 22.8 16.6004 23.1 16.9004 23.1H20.4004L21.3004 17.6L22.1004 11.6Z" fill="white"/>
</g>
</g>
<defs>
<clipPath id="clip0_2207_528">
<rect width="48" height="32" fill="white"/>
</clipPath>
<clipPath id="clip1_2207_528">
<rect width="48" height="32" fill="white"/>
</clipPath>
</defs>
</svg>
