<svg width="17" height="12" viewBox="0 0 17 12" fill="none" xmlns="http://www.w3.org/2000/svg">
<path d="M6.54525 3.30637L10.4546 5.91638L6.54638 7.94137L6.54525 3.30637ZM15.6791 0.865125C15.0514 0.208125 14.3471 0.205875 14.0254 0.1665C11.7169 0 8.25412 0 8.25412 0H8.24625C8.24625 0 4.78237 0 2.47387 0.1665C2.151 0.20475 1.44788 0.208125 0.820125 0.865125C0.325125 1.36575 0.16425 2.50312 0.16425 2.50312C0.16425 2.50312 0 3.83962 0 5.17387V6.426C0 7.76025 0.16425 9.09562 0.16425 9.09562C0.16425 9.09562 0.325125 10.233 0.820125 10.7336C1.44788 11.3906 2.2725 11.3704 2.63925 11.439C3.96 11.565 8.24963 11.6044 8.24963 11.6044C8.24963 11.6044 11.7169 11.5999 14.0254 11.4323C14.3483 11.394 15.0514 11.3906 15.6791 10.7336C16.1741 10.233 16.335 9.09562 16.335 9.09562C16.335 9.09562 16.4993 7.76025 16.4993 6.42487V5.175C16.4993 3.83963 16.335 2.50425 16.335 2.50425C16.335 2.50425 16.1741 1.368 15.6791 0.86625V0.865125Z" fill="white"/>
</svg>
