<svg width="150" height="45" viewBox="0 0 150 45" fill="none" xmlns="http://www.w3.org/2000/svg">
<mask id="mask0_2207_509" style="mask-type:luminance" maskUnits="userSpaceOnUse" x="0" y="0" width="150" height="45">
<path d="M150 0H0V44.63H150V0Z" fill="white"/>
</mask>
<g mask="url(#mask0_2207_509)">
<path d="M144.444 44.5398H5.55555C2.44445 44.5398 0 42.0949 0 38.9835V5.64645C0 2.53499 2.44445 0.090271 5.55555 0.090271H144.444C147.556 0.090271 150 2.53499 150 5.64645V38.9835C150 42.0949 147.556 44.5398 144.444 44.5398Z" fill="#181818"/>
<path d="M144.444 0.97926C147 0.97926 149.111 3.09061 149.111 5.64645V38.9835C149.111 41.5395 147 43.6507 144.444 43.6507H5.55555C3 43.6507 0.88889 41.5395 0.88889 38.9835V5.64645C0.88889 3.09061 3 0.97926 5.55555 0.97926H144.444ZM144.444 0.090271H5.55555C2.44445 0.090271 0 2.64611 0 5.64645V38.9835C0 42.0949 2.44445 44.5398 5.55555 44.5398H144.444C147.556 44.5398 150 42.0949 150 38.9835V5.64645C150 2.64611 147.556 0.090271 144.444 0.090271Z" fill="#A6A6A6"/>
<path d="M52.6668 11.4245C52.6668 12.3134 52.4446 13.0911 51.889 13.6467C51.2223 14.3134 50.4445 14.6467 49.4446 14.6467C48.4444 14.6467 47.6667 14.3134 47.0001 13.6467C46.3334 12.98 46 12.2023 46 11.2022C46 10.2023 46.3334 9.42448 47.0001 8.75781C47.6667 8.09113 48.4444 7.75781 49.4446 7.75781C49.8889 7.75781 50.3333 7.86893 50.7779 8.09113C51.2223 8.31336 51.5556 8.53558 51.7778 8.86892L51.2223 9.42446C50.7779 8.86892 50.2223 8.64669 49.4446 8.64669C48.7778 8.64669 48.1113 8.86892 47.6667 9.42446C47.1111 9.86891 46.8889 10.5356 46.8889 11.3134C46.8889 12.0911 47.1111 12.7578 47.6667 13.2023C48.2223 13.6467 48.7778 13.98 49.4446 13.98C50.2223 13.98 50.7779 13.7578 51.3334 13.2023C51.6668 12.8689 51.889 12.4245 51.889 11.8689H49.4446V10.98H52.6668V11.4245ZM57.7778 8.64669H54.7778V10.7578H57.5556V11.5356H54.7778V13.6467H57.7778V14.5356H53.8889V7.86893H57.7778V8.64669ZM61.4446 14.5356H60.5556V8.64669H58.6668V7.86893H63.3334V8.64669H61.4446V14.5356ZM66.5556 14.5356V7.86893H67.4446V14.5356H66.5556ZM71.2223 14.5356H70.3334V8.64669H68.4445V7.86893H73V8.64669H71.1111V14.5356H71.2223ZM81.7778 13.6467C81.1113 14.3134 80.3333 14.6467 79.3334 14.6467C78.3334 14.6467 77.5557 14.3134 76.8889 13.6467C76.2222 12.98 75.889 12.2023 75.889 11.2022C75.889 10.2023 76.2222 9.42448 76.8889 8.75781C77.5557 8.09113 78.3334 7.75781 79.3334 7.75781C80.3333 7.75781 81.1113 8.09113 81.7778 8.75781C82.4446 9.42448 82.7777 10.2023 82.7777 11.2022C82.7777 12.2023 82.4446 12.98 81.7778 13.6467ZM77.5557 13.0911C78.0001 13.5356 78.6668 13.8689 79.3334 13.8689C80.0001 13.8689 80.6667 13.6467 81.1112 13.0911C81.5556 12.6467 81.889 11.98 81.889 11.2022C81.889 10.4245 81.6668 9.7578 81.1112 9.31337C80.6667 8.86892 80.0001 8.53558 79.3334 8.53558C78.6668 8.53558 78.0001 8.75781 77.5557 9.31337C77.1111 9.7578 76.7777 10.4245 76.7777 11.2022C76.7777 11.98 77.0001 12.6467 77.5557 13.0911ZM84.0001 14.5356V7.86893H85L88.2224 13.0911V7.86893H89.1111V14.5356H88.2224L84.7778 9.09114V14.5356H84.0001Z" fill="white" stroke="white" stroke-width="0.222223" stroke-miterlimit="10"/>
<path d="M75.667 24.3151C73.0002 24.3151 70.8891 26.3152 70.8891 29.0933C70.8891 31.7602 73.0002 33.8717 75.667 33.8717C78.3336 33.8717 80.4447 31.8714 80.4447 29.0933C80.4447 26.2041 78.3336 24.3151 75.667 24.3151ZM75.667 31.8714C74.2225 31.8714 73.0002 30.649 73.0002 28.9823C73.0002 27.3154 74.2225 26.0929 75.667 26.0929C77.1113 26.0929 78.3336 27.2042 78.3336 28.9823C78.3336 30.649 77.1113 31.8714 75.667 31.8714ZM65.3335 24.3151C62.6669 24.3151 60.5558 26.3152 60.5558 29.0933C60.5558 31.7602 62.6669 33.8717 65.3335 33.8717C68.0003 33.8717 70.1114 31.8714 70.1114 29.0933C70.1114 26.2041 68.0003 24.3151 65.3335 24.3151ZM65.3335 31.8714C63.8892 31.8714 62.6669 30.649 62.6669 28.9823C62.6669 27.3154 63.8892 26.0929 65.3335 26.0929C66.778 26.0929 68.0003 27.2042 68.0003 28.9823C68.0003 30.649 66.778 31.8714 65.3335 31.8714ZM53.0003 25.7595V27.7598H57.778C57.667 28.8711 57.2224 29.7601 56.6669 30.3157C56.0003 30.9824 54.8892 31.7602 53.0003 31.7602C50.0003 31.7602 47.7781 29.4267 47.7781 26.4264C47.7781 23.426 50.1113 21.0923 53.0003 21.0923C54.5558 21.0923 55.7779 21.7591 56.6669 22.537L58.1114 21.0923C56.8891 19.9813 55.3336 19.0922 53.1113 19.0922C49.1114 19.0922 45.667 22.426 45.667 26.4264C45.667 30.4267 49.1114 33.7605 53.1113 33.7605C55.3336 33.7605 56.8891 33.0937 58.2226 31.6492C59.5559 30.3157 60.0002 28.4266 60.0002 26.982C60.0002 26.5376 60.0002 26.0929 59.8891 25.7595H53.0003ZM103.445 27.3154C103 26.2041 101.889 24.3151 99.4446 24.3151C97.0002 24.3151 95.0003 26.2041 95.0003 29.0933C95.0003 31.7602 97.0002 33.8717 99.667 33.8717C101.778 33.8717 103.111 32.5382 103.556 31.7602L102 30.649C101.445 31.427 100.778 31.9826 99.667 31.9826C98.5559 31.9826 97.8891 31.538 97.3336 30.5379L103.667 27.871L103.445 27.3154ZM97.0002 28.8711C97.0002 27.093 98.4447 26.0929 99.4446 26.0929C100.223 26.0929 101 26.5376 101.222 27.093L97.0002 28.8711ZM91.7779 33.4271H93.8892V19.5366H91.7779V33.4271ZM88.4447 25.3151C87.8892 24.7595 87.0002 24.2039 85.8891 24.2039C83.5559 24.2039 81.3336 26.3152 81.3336 28.9823C81.3336 31.6492 83.4447 33.6493 85.8891 33.6493C87.0002 33.6493 87.8892 33.0937 88.3336 32.5382H88.4447V33.2049C88.4447 34.9829 87.4446 35.983 85.8891 35.983C84.667 35.983 83.7781 35.094 83.5559 34.3161L81.778 35.094C82.3336 36.3164 83.6669 37.8721 86.0003 37.8721C88.4447 37.8721 90.4446 36.4274 90.4446 32.9827V24.5373H88.4447V25.3151ZM86.0003 31.8714C84.5558 31.8714 83.3335 30.649 83.3335 28.9823C83.3335 27.3154 84.5558 26.0929 86.0003 26.0929C87.4446 26.0929 88.5557 27.3154 88.5557 28.9823C88.5557 30.649 87.4446 31.8714 86.0003 31.8714ZM113.111 19.5366H108.111V33.4271H110.222V28.2042H113.111C115.445 28.2042 117.667 26.5376 117.667 23.8704C117.667 21.2035 115.445 19.5366 113.111 19.5366ZM113.222 26.2041H110.222V21.4257H113.222C114.778 21.4257 115.667 22.7592 115.667 23.7594C115.556 24.9817 114.667 26.2041 113.222 26.2041ZM126 24.2039C124.445 24.2039 122.889 24.8707 122.333 26.3152L124.223 27.093C124.667 26.3152 125.333 26.0929 126.111 26.0929C127.223 26.0929 128.222 26.7598 128.333 27.871V27.982C128 27.7598 127.111 27.4264 126.222 27.4264C124.223 27.4264 122.222 28.5377 122.222 30.5379C122.222 32.427 123.889 33.6493 125.667 33.6493C127.111 33.6493 127.778 32.9827 128.333 32.3158H128.445V33.4271H130.445V28.0932C130.223 25.6485 128.333 24.2039 126 24.2039ZM125.778 31.8714C125.111 31.8714 124.111 31.538 124.111 30.649C124.111 29.5379 125.333 29.2045 126.334 29.2045C127.223 29.2045 127.667 29.4267 128.222 29.6489C128 30.9824 126.889 31.8714 125.778 31.8714ZM137.445 24.5373L135.111 30.5379H135L132.556 24.5373H130.334L134 32.9827L131.889 37.6499H134L139.667 24.5373H137.445ZM118.778 33.4271H120.889V19.5366H118.778V33.4271Z" fill="white"/>
<path d="M11.5558 8.42453C11.2224 8.7579 11.1113 9.31353 11.1113 9.98026V34.5385C11.1113 35.2054 11.3336 35.761 11.6669 36.0942L11.778 36.2054L25.5557 22.4262V22.2038L11.5558 8.42453Z" fill="url(#paint0_linear_2207_509)"/>
<path d="M29.9998 27.0932L25.4443 22.5372V22.2038L29.9998 17.6478L30.111 17.7589L35.5555 20.8703C37.111 21.7594 37.111 23.204 35.5555 24.0929L29.9998 27.0932Z" fill="url(#paint1_linear_2207_509)"/>
<path d="M30.1113 26.9822L25.4446 22.315L11.5557 36.2054C12.1112 36.7611 12.889 36.7611 13.889 36.3166L30.1113 26.9822Z" fill="url(#paint2_linear_2207_509)"/>
<path d="M30.1113 17.6478L13.889 8.42455C12.889 7.86894 12.1112 7.98007 11.5557 8.53567L25.4446 22.315L30.1113 17.6478Z" fill="url(#paint3_linear_2207_509)"/>
<path opacity="0.2" d="M30.0001 26.871L13.889 35.9832C13.0001 36.5388 12.2223 36.4276 11.6668 35.9832L11.5557 36.0942L11.6668 36.2054C12.2223 36.6498 13.0001 36.761 13.889 36.2054L30.0001 26.871Z" fill="#181818"/>
<path opacity="0.12" d="M11.5558 35.9832C11.2224 35.6498 11.1113 35.0942 11.1113 34.4275V34.5386C11.1113 35.2054 11.3336 35.761 11.6669 36.0942V35.9832H11.5558ZM35.5558 23.7597L30.0002 26.871L30.1114 26.9822L35.5558 23.8707C36.3336 23.4263 36.667 22.8706 36.667 22.315C36.667 22.8706 36.2224 23.3151 35.5558 23.7597Z" fill="#181818"/>
<path opacity="0.25" d="M13.8891 8.53568L35.5558 20.8703C36.2224 21.315 36.667 21.7594 36.667 22.315C36.667 21.7594 36.3336 21.2038 35.5558 20.7593L13.8891 8.42455C12.3335 7.53557 11.1113 8.2023 11.1113 9.98028V10.0914C11.1113 8.42455 12.3335 7.6467 13.8891 8.53568Z" fill="white"/>
</g>
<defs>
<linearGradient id="paint0_linear_2207_509" x1="24.2224" y1="9.76913" x2="5.57257" y2="28.4158" gradientUnits="userSpaceOnUse">
<stop stop-color="#00A0FF"/>
<stop offset="0.007" stop-color="#00A1FF"/>
<stop offset="0.26" stop-color="#00BEFF"/>
<stop offset="0.512" stop-color="#00D2FF"/>
<stop offset="0.76" stop-color="#00DFFF"/>
<stop offset="1" stop-color="#00E3FF"/>
</linearGradient>
<linearGradient id="paint1_linear_2207_509" x1="37.5932" y1="22.3161" x2="10.7076" y2="22.3161" gradientUnits="userSpaceOnUse">
<stop stop-color="#FFE000"/>
<stop offset="0.409" stop-color="#FFBD00"/>
<stop offset="0.775" stop-color="#FFA500"/>
<stop offset="1" stop-color="#FF9C00"/>
</linearGradient>
<linearGradient id="paint2_linear_2207_509" x1="27.5857" y1="24.8664" x2="2.29618" y2="50.153" gradientUnits="userSpaceOnUse">
<stop stop-color="#FF3A44"/>
<stop offset="1" stop-color="#C31162"/>
</linearGradient>
<linearGradient id="paint3_linear_2207_509" x1="8.1079" y1="0.285864" x2="19.4014" y2="11.5781" gradientUnits="userSpaceOnUse">
<stop stop-color="#32A071"/>
<stop offset="0.069" stop-color="#2DA771"/>
<stop offset="0.476" stop-color="#15CF74"/>
<stop offset="0.801" stop-color="#06E775"/>
<stop offset="1" stop-color="#00F076"/>
</linearGradient>
</defs>
</svg>
