<svg width="48" height="32" viewBox="0 0 48 32" fill="none" xmlns="http://www.w3.org/2000/svg">
<g clip-path="url(#clip0_2207_551)">
<g clip-path="url(#clip1_2207_551)">
<path d="M45.5 0.5H2.5C1.39543 0.5 0.5 1.39543 0.5 2.5V29.5C0.5 30.6046 1.39543 31.5 2.5 31.5H45.5C46.6046 31.5 47.5 30.6046 47.5 29.5V2.5C47.5 1.39543 46.6046 0.5 45.5 0.5Z" stroke="white"/>
<path fill-rule="evenodd" clip-rule="evenodd" d="M31.057 10.396L31.783 8.476H35V5H13V27H35V23.523H31.939L30.797 22.226L29.655 23.523H21.042V16.57H18.189L21.769 8.529H25.245L26.075 10.345V8.527H30.381L31.057 10.396ZM28.67 11.693V10.916L28.98 11.693L30.433 15.533H31.783L33.236 11.693L33.495 10.916V15.48H35V9.617H32.51L31.369 12.575L31.057 13.405L30.745 12.575L29.604 9.618H27.113V15.48H28.67V11.693ZM25.453 15.48H27.165L24.572 9.617H22.547L19.953 15.48H21.665L22.131 14.338H24.986L25.453 15.481V15.48ZM23.273 11.641L23.583 10.916L23.896 11.642L24.519 13.147H22.703L23.273 11.641ZM22.236 16.571V22.434H27.113V21.19H23.689V20.15H27.009V18.907H23.689V17.867H27.113V16.622H22.236V16.571ZM32.613 22.381H34.533L31.783 19.476L34.533 16.571H32.613L30.849 18.491L29.084 16.571H27.113L29.863 19.528L27.113 22.434L28.981 22.435L30.745 20.515L32.613 22.381ZM33.339 19.476L34.999 21.189V17.816L33.339 19.476Z" fill="white"/>
</g>
</g>
<defs>
<clipPath id="clip0_2207_551">
<rect width="48" height="32" fill="white"/>
</clipPath>
<clipPath id="clip1_2207_551">
<rect width="48" height="32" fill="white"/>
</clipPath>
</defs>
</svg>
