<svg width="17" height="17" viewBox="0 0 17 17" fill="none" xmlns="http://www.w3.org/2000/svg">
<path d="M15.1464 15.8536L15.5 16.2071L16.2071 15.5L15.8536 15.1464L15.1464 15.8536ZM12.8529 6.67647H12.3529C12.3529 9.8115 9.8115 12.3529 6.67647 12.3529V12.8529V13.3529C10.3638 13.3529 13.3529 10.3638 13.3529 6.67647H12.8529ZM6.67647 12.8529V12.3529C3.54144 12.3529 1 9.8115 1 6.67647H0.5H0C0 10.3638 2.98916 13.3529 6.67647 13.3529V12.8529ZM0.5 6.67647H1C1 3.54144 3.54144 1 6.67647 1V0.5V0C2.98916 0 0 2.98916 0 6.67647H0.5ZM6.67647 0.5V1C9.8115 1 12.3529 3.54144 12.3529 6.67647H12.8529H13.3529C13.3529 2.98916 10.3638 0 6.67647 0V0.5ZM11.0882 11.0882L10.7347 11.4418L15.1464 15.8536L15.5 15.5L15.8536 15.1464L11.4418 10.7347L11.0882 11.0882Z" fill="#181818"/>
</svg>
