<svg width="70" height="32" viewBox="0 0 70 32" fill="none" xmlns="http://www.w3.org/2000/svg">
<rect width="70" height="32" rx="16" fill="white"/>
<path d="M60.6967 13.0183L59.1119 12.1213L57.506 11.2112C56.4389 10.6088 55.1103 11.367 55.1103 12.5783V12.7826C55.1103 12.8952 55.1707 12.9987 55.2693 13.055L56.0157 13.4767C56.1117 13.5317 56.2299 13.5304 56.3259 13.4767C56.4218 13.4217 56.4809 13.3195 56.4809 13.2108V12.725C56.4809 12.6137 56.5401 12.5102 56.6386 12.4552C56.7359 12.3989 56.8555 12.3989 56.954 12.4539L58.4219 13.2855L59.8872 14.1144C59.9871 14.1694 60.0488 14.2742 60.0488 14.3868C60.0488 14.4981 59.9871 14.6029 59.8872 14.6579L58.4219 15.4855L56.954 16.3171C56.8555 16.3721 56.7346 16.3721 56.6386 16.3171C56.5401 16.2608 56.4809 16.1573 56.4809 16.046V15.805C56.4809 14.5937 55.1497 13.8342 54.0852 14.4379L52.4793 15.348L50.8932 16.245C49.8234 16.8514 49.8234 18.3744 50.8932 18.982L52.4793 19.8777L54.0852 20.7879C55.151 21.3902 56.4809 20.632 56.4809 19.4207V19.2151C56.4809 19.1038 56.4192 19.0003 56.3206 18.944L55.5755 18.5223C55.4795 18.4673 55.3613 18.4673 55.2653 18.5223C55.1694 18.5773 55.1103 18.6795 55.1103 18.7882V19.2727C55.1103 19.3827 55.0511 19.4862 54.9526 19.5425C54.8553 19.5988 54.7344 19.5988 54.6372 19.5425L53.168 18.7122L51.7001 17.8833C51.6015 17.8283 51.541 17.7248 51.541 17.6135C51.541 17.5009 51.6015 17.3988 51.6987 17.3424L53.1653 16.5135L54.6332 15.6819C54.7318 15.6256 54.8514 15.6269 54.9486 15.6819C55.0472 15.7382 55.1063 15.8417 55.1063 15.953V16.194C55.1063 17.4053 56.4376 18.1648 57.5007 17.5611L59.1066 16.651L60.6967 15.754C61.7678 15.1476 61.7678 13.6246 60.6967 13.0183ZM50.4582 13.4989L46.6196 21H45.0242L46.4605 18.1976L44.2015 13.4989H45.8376L47.2871 16.6445L48.872 13.4989H50.4582ZM12.7079 16.1835C12.7079 15.3126 12.064 14.7011 11.2702 14.7011C10.4778 14.7011 9.83255 15.3218 9.83255 16.1835C9.83255 17.0334 10.4765 17.6659 11.2702 17.6659C12.0627 17.6659 12.7079 17.0557 12.7079 16.1835ZM12.7197 18.7738V18.1007C12.3281 18.5669 11.746 18.8563 11.0481 18.8563C9.59994 18.8563 8.5 17.717 8.5 16.1835C8.5 14.6605 9.642 13.4989 11.081 13.4989C11.7144 13.495 12.3163 13.7687 12.7211 14.2454V13.5906H14.0221V18.7738H12.7197ZM20.7374 17.6751C20.2603 17.6751 20.1263 17.5048 20.1263 17.0583V14.6959H21.0028V13.5356H20.1263V12.2365H18.7293V13.5356H16.929V13.0065C16.929 12.5587 17.1077 12.3884 17.5952 12.3884H17.9027V11.3565H17.2299C16.0761 11.3565 15.5333 11.7179 15.5333 12.8245V13.5356H14.758V14.6959H15.5333V18.8563H16.9303V14.6959H18.7307V17.3032C18.7307 18.3888 19.163 18.8563 20.2945 18.8563H21.0133V17.6751H20.7374ZM25.831 15.716C25.7338 15.0429 25.1674 14.6382 24.5063 14.6382C23.844 14.6382 23.3 15.0311 23.1607 15.716H25.831ZM23.1501 16.5253C23.2461 17.2914 23.8125 17.7274 24.5274 17.7274C25.0925 17.7274 25.5314 17.4682 25.785 17.053H27.1622C26.8429 18.153 25.8284 18.8563 24.4945 18.8563C22.8807 18.8563 21.7506 17.7576 21.7506 16.1927C21.7506 14.6278 22.9465 13.4989 24.5274 13.4989C26.1175 13.4989 27.2713 14.6395 27.2713 16.194C27.2713 16.3053 27.2608 16.4166 27.2385 16.5266L23.1501 16.5253ZM35.8764 15.864C35.8764 15.0128 35.2311 14.3593 34.4374 14.3593C33.6436 14.3593 32.9997 14.9905 32.9997 15.8653C32.9997 16.727 33.6436 17.3699 34.4374 17.3699C35.2311 17.3699 35.8764 16.7178 35.8764 15.864ZM31.6882 20.6412V13.2357H32.9892V13.9193C33.3795 13.4348 33.9617 13.1427 34.6595 13.1427C36.088 13.1427 37.2089 14.3095 37.2089 15.8561C37.2089 17.4014 36.0656 18.58 34.6266 18.58C33.959 18.58 33.411 18.3181 33.0299 17.8754V20.6425L31.6882 20.6412ZM42.1541 16.1835C42.1541 15.3126 41.5101 14.7011 40.7164 14.7011C39.9226 14.7011 39.2774 15.3218 39.2774 16.1835C39.2774 17.0334 39.9226 17.6659 40.7164 17.6659C41.5088 17.6659 42.1541 17.0557 42.1541 16.1835ZM42.1646 18.7738V18.1007C41.773 18.5669 41.1921 18.8563 40.4943 18.8563C39.0448 18.8563 37.9448 17.717 37.9448 16.1835C37.9448 14.6605 39.0882 13.4989 40.5258 13.4989C41.1593 13.4937 41.7611 13.7687 42.1659 14.2454V13.5906H43.4656V18.7738H42.1646ZM29.0691 14.1079C29.0691 14.1079 29.4331 13.5002 30.3241 13.5002C30.5396 13.4963 30.7551 13.5369 30.9509 13.6181V14.9617C30.9509 14.9617 30.4135 14.6605 29.9193 14.722C29.4252 14.7823 29.1138 15.1935 29.1151 15.7409V18.8576H27.6393V13.5932H29.0691V14.1079Z" fill="#181818"/>
</svg>
