<svg width="8" height="18" viewBox="0 0 8 18" fill="none" xmlns="http://www.w3.org/2000/svg">
<path d="M2.63957 0.882939C3.30814 0.24651 4.25957 0.0317958 5.157 0.00479585C6.10586 -0.00420415 7.05471 0.00222442 8.00229 0.00222442C8.00614 1.0038 8.00614 2.00537 8.00229 3.00565C7.389 3.00565 6.77443 3.00822 6.16114 3.00565C5.77286 2.97994 5.373 3.27565 5.30229 3.66137C5.29329 4.32994 5.29843 5.00108 5.29972 5.67094C6.19972 5.6748 7.09972 5.67094 7.99843 5.67351C7.92674 6.64254 7.81737 7.60841 7.67057 8.56894C6.876 8.57665 6.08143 8.56894 5.28686 8.5728C5.27914 11.4309 5.29072 14.2904 5.28171 17.1485C4.10143 17.1537 2.91986 17.1459 1.73957 17.1524C1.71771 14.2929 1.74086 11.4322 1.72671 8.5728C1.152 8.56765 0.576 8.57794 0 8.56894V5.68508C0.576 5.67865 1.152 5.68765 1.728 5.68122C1.74471 4.7478 1.71 3.8118 1.746 2.87837C1.80386 2.13908 2.08543 1.39465 2.63829 0.884224" fill="white"/>
</svg>
