<svg width="16" height="18" viewBox="0 0 16 18" fill="none" xmlns="http://www.w3.org/2000/svg">
<path d="M8.27559 0H11.3632C11.6511 0.119062 11.7626 0.33375 11.7706 0.645C11.7908 1.44563 12.0687 2.15625 12.5951 2.75906C13.2561 3.51609 14.0923 3.91406 15.0987 3.95016C15.5272 3.96562 15.7114 4.16109 15.7114 4.58859C15.7118 5.47266 15.7128 6.35719 15.7109 7.24125C15.7104 7.62187 15.4892 7.83938 15.1072 7.83328C14.217 7.81875 13.354 7.66172 12.5257 7.32938C12.2745 7.22859 12.0293 7.11375 11.7607 6.99656V7.22437C11.7607 8.80547 11.7626 10.3866 11.7589 11.9677C11.7584 12.2423 11.7481 12.5184 11.7172 12.7913C11.4425 15.1861 9.73622 17.1689 7.40747 17.7919C7.04887 17.888 6.67669 17.932 6.31059 18.0005H5.43356C5.19262 17.9616 4.94981 17.932 4.71122 17.8828C1.49606 17.2228 -0.560344 14.0602 0.135281 10.8492C0.716062 8.17031 3.102 6.22969 5.83012 6.21703C6.17512 6.21563 6.40622 6.42234 6.40809 6.75984C6.41325 7.69125 6.41372 8.62313 6.40762 9.55453C6.40575 9.86766 6.18637 10.0739 5.87372 10.0912C5.76872 10.0973 5.66419 10.1067 5.56012 10.1217C4.46934 10.2802 3.69637 11.3723 3.90309 12.4631C4.11497 13.582 5.20247 14.3175 6.28856 14.0766C7.25559 13.8623 7.88981 13.0612 7.89028 12.0464C7.89122 8.26734 7.89356 4.48781 7.88606 0.70875C7.88512 0.383437 7.97419 0.1425 8.27559 0Z" fill="white"/>
</svg>
