<svg width="48" height="32" viewBox="0 0 48 32" fill="none" xmlns="http://www.w3.org/2000/svg">
<g clip-path="url(#clip0_2207_557)">
<g clip-path="url(#clip1_2207_557)">
<path d="M45.082 0.47168V0.472656C45.2181 0.473683 45.3511 0.475647 45.4834 0.479492C45.7195 0.486307 45.9662 0.499118 46.1855 0.541016C46.368 0.576117 46.5096 0.626921 46.6426 0.699219H46.6436C46.7753 0.770734 46.8981 0.865659 47.0068 0.981445V0.982422C47.1164 1.09962 47.208 1.2342 47.2793 1.38379H47.2803C47.35 1.52977 47.3985 1.68677 47.4326 1.8916L47.4336 1.89258C47.474 2.13121 47.4866 2.4017 47.4932 2.65723C47.4967 2.79844 47.4984 2.94051 47.499 3.08691V3.08789C47.5003 3.26585 47.5 3.44421 47.5 3.625V28.3184C47.5 28.4992 47.5003 28.6775 47.499 28.8594V28.8604C47.4984 29.0032 47.4968 29.1456 47.4932 29.2871C47.4867 29.5419 47.4736 29.8118 47.4326 30.0537V30.0547C47.4075 30.2055 47.3732 30.3316 47.3281 30.4473L47.2793 30.5605C47.2082 30.7097 47.1164 30.844 47.0078 30.96C46.8981 31.0771 46.7757 31.1716 46.6416 31.2441L46.6406 31.2451C46.542 31.2989 46.4381 31.3409 46.3164 31.373L46.1885 31.4023C46.0762 31.4237 45.9555 31.4378 45.8359 31.4473L45.4883 31.4648C45.3539 31.4681 45.2201 31.47 45.083 31.4707H45.0811C44.9153 31.4721 44.7487 31.4717 44.5801 31.4717H3.41406L2.91504 31.4707H2.91309C2.7784 31.47 2.64418 31.468 2.51465 31.4648H2.51562C2.29338 31.4584 2.03495 31.4448 1.8125 31.4023H1.81348C1.63161 31.3674 1.49047 31.3172 1.35645 31.2441L1.35547 31.2432C1.22335 31.1716 1.10093 31.0774 0.991211 30.96V30.959L0.913086 30.8691C0.838602 30.7761 0.773927 30.6734 0.720703 30.5615V30.5605C0.650653 30.4135 0.600591 30.256 0.566406 30.0518V30.0508L0.541016 29.8652C0.519915 29.6757 0.511644 29.4769 0.506836 29.2871L0.500977 28.8584L0.5 28.4307V3.5127L0.500977 3.08594C0.501877 2.94102 0.503267 2.79857 0.506836 2.65723C0.513238 2.40432 0.525147 2.13462 0.566406 1.89062L0.567383 1.88965C0.601146 1.68787 0.650088 1.53008 0.720703 1.38184L0.72168 1.38086C0.791748 1.23359 0.88279 1.10022 0.992188 0.983398C1.10074 0.867404 1.2234 0.772073 1.35742 0.699219H1.3584C1.49029 0.6275 1.63118 0.576053 1.81348 0.541016C2.03286 0.498946 2.27951 0.48635 2.5166 0.479492C2.64821 0.475673 2.78104 0.473651 2.91602 0.472656L2.91504 0.47168H45.082Z" stroke="white"/>
<path d="M13.1035 10.7625C13.5145 10.2272 13.7934 9.50843 13.7198 8.77393C13.1182 8.80508 12.384 9.18726 11.959 9.723C11.5773 10.1818 11.2395 10.9306 11.3276 11.6344C12.003 11.6954 12.6777 11.2828 13.1035 10.7625Z" fill="white"/>
<path d="M13.7121 11.7718C12.7313 11.7109 11.8974 12.3514 11.429 12.3514C10.9604 12.3514 10.2431 11.8024 9.46739 11.8172C8.4577 11.8327 7.52082 12.4272 7.00845 13.3727C5.95458 15.2642 6.73033 18.07 7.75516 19.6105C8.25284 20.3727 8.85263 21.2119 9.64295 21.1817C10.3897 21.1512 10.6823 20.6782 11.59 20.6782C12.497 20.6782 12.7607 21.1817 13.5511 21.1665C14.3708 21.1512 14.8833 20.404 15.3809 19.6411C15.9519 18.7722 16.1856 17.9333 16.2003 17.8873C16.1856 17.872 14.6197 17.2465 14.6051 15.3707C14.5904 13.8 15.8346 13.0529 15.8931 13.0066C15.1905 11.9245 14.0927 11.8024 13.7121 11.7718Z" fill="white"/>
<path d="M22.2518 9.646C24.3835 9.646 25.8679 11.1762 25.8679 13.404C25.8679 15.6398 24.353 17.178 22.1983 17.178H19.8381V21.0866H18.1328V9.646L22.2518 9.646ZM19.8381 15.6874H21.7948C23.2794 15.6874 24.1244 14.855 24.1244 13.412C24.1244 11.9691 23.2794 11.1445 21.8024 11.1445H19.8381V15.6874Z" fill="white"/>
<path d="M26.3135 18.7161C26.3135 17.2572 27.387 16.3613 29.2905 16.2503L31.483 16.1156V15.4734C31.483 14.5458 30.8815 13.9908 29.8767 13.9908C28.9248 13.9908 28.331 14.4664 28.1865 15.2118H26.6333C26.7247 13.7053 27.9579 12.5953 29.9375 12.5953C31.8789 12.5953 33.1199 13.6657 33.1199 15.3385V21.0866H31.5438V19.715H31.5059C31.0416 20.6427 30.0289 21.2293 28.9783 21.2293C27.4099 21.2293 26.3135 20.2145 26.3135 18.7161ZM31.483 17.9629V17.3049L29.5111 17.4317C28.5289 17.5031 27.9732 17.955 27.9732 18.6685C27.9732 19.3978 28.5518 19.8736 29.435 19.8736C30.5846 19.8736 31.483 19.049 31.483 17.9629Z" fill="white"/>
<path d="M34.6073 24.1551V22.7676C34.7289 22.7992 35.0029 22.7992 35.1401 22.7992C35.9013 22.7992 36.3125 22.4663 36.5637 21.6101C36.5637 21.5941 36.7084 21.1026 36.7084 21.0947L33.8154 12.7461H35.5968L37.6222 19.5328H37.6524L39.6778 12.7461H41.4136L38.4137 21.5227C37.7288 23.5446 36.937 24.1947 35.2772 24.1947C35.1401 24.1947 34.7289 24.1788 34.6073 24.1551Z" fill="white"/>
</g>
</g>
<defs>
<clipPath id="clip0_2207_557">
<rect width="48" height="32" fill="white"/>
</clipPath>
<clipPath id="clip1_2207_557">
<rect width="48" height="32" fill="white"/>
</clipPath>
</defs>
</svg>
