<svg width="150" height="48" viewBox="0 0 150 48" fill="none" xmlns="http://www.w3.org/2000/svg">
<mask id="mask0_2207_500" style="mask-type:luminance" maskUnits="userSpaceOnUse" x="0" y="0" width="150" height="48">
<path d="M149.991 0H0.00976562V47.23H149.991V0Z" fill="white"/>
</mask>
<g mask="url(#mask0_2207_500)">
<path d="M137.985 -0.0493154H12.0234C11.5642 -0.0493154 11.1106 -0.0493154 10.6526 -0.0469486C10.2693 -0.0445817 9.88905 -0.0377178 9.50202 -0.0319189C8.66124 -0.0225714 7.82245 0.0473352 6.99293 0.177193C6.16456 0.30988 5.36214 0.560036 4.61282 0.919205C3.86442 1.28143 3.18061 1.75209 2.58615 2.31412C1.9886 2.87452 1.49046 3.52227 1.11093 4.23246C0.730347 4.9413 0.466455 5.7009 0.328369 6.485C0.188961 7.26808 0.113945 8.0602 0.103993 8.85423C0.0923483 9.21707 0.0910962 9.5811 0.0849609 9.94406V37.2982C0.0910962 37.6657 0.0923483 38.0216 0.103993 38.3892C0.113954 39.1832 0.188971 39.9752 0.328369 40.7583C0.466084 41.5427 0.729992 42.3028 1.11093 43.0119C1.49028 43.7199 1.98848 44.365 2.58615 44.9222C3.17835 45.4869 3.86262 45.9577 4.61282 46.3172C5.36214 46.6773 6.16448 46.9289 6.99293 47.0636C7.8226 47.1925 8.66129 47.2624 9.50202 47.273C9.88892 47.2809 10.2693 47.2857 10.6527 47.2857C11.1106 47.2879 11.5642 47.2879 12.0234 47.2879H137.985C138.435 47.2879 138.892 47.2879 139.342 47.2857C139.724 47.2857 140.115 47.2809 140.497 47.273C141.336 47.2631 142.173 47.1931 143.001 47.0636C143.832 46.9279 144.637 46.6764 145.39 46.3172C146.139 45.9575 146.823 45.4865 147.415 44.9222C148.011 44.3628 148.51 43.7181 148.894 43.0119C149.272 42.3023 149.534 41.5423 149.669 40.7583C149.809 39.9751 149.887 39.1832 149.902 38.3892C149.907 38.0216 149.907 37.6657 149.907 37.2982C149.917 36.8683 149.917 36.4406 149.917 36.0037V11.2361C149.917 10.8026 149.917 10.3728 149.907 9.94406C149.907 9.5811 149.907 9.21707 149.902 8.85412C149.887 8.06002 149.809 7.26808 149.669 6.48489C149.533 5.70131 149.272 4.94187 148.894 4.23257C148.121 2.80895 146.896 1.65013 145.39 0.919087C144.637 0.560799 143.832 0.310708 143.001 0.177076C142.173 0.0466647 141.336 -0.0232466 140.497 -0.0320374C140.115 -0.0378361 139.724 -0.0448184 139.342 -0.0470669C138.892 -0.0494337 138.435 -0.0493154 137.985 -0.0493154Z" fill="#A6A6A6"/>
<path d="M10.6584 46.2527C10.2769 46.2527 9.90462 46.2482 9.52611 46.24C8.74206 46.2305 7.95982 46.166 7.18582 46.0472C6.46411 45.9297 5.76496 45.7111 5.11147 45.3987C4.46392 45.0888 3.87333 44.6826 3.36227 44.1955C2.84379 43.7143 2.41213 43.156 2.08438 42.543C1.75307 41.9259 1.52377 41.2645 1.40449 40.5817C1.27572 39.8481 1.20607 39.1064 1.19614 38.3629C1.18813 38.1132 1.17773 37.2822 1.17773 37.2822V9.94421C1.17773 9.94421 1.18875 9.12598 1.19614 8.88551C1.20568 8.14314 1.27495 7.40255 1.40336 6.67011C1.52288 5.98552 1.75237 5.32221 2.08387 4.70314C2.41036 4.09046 2.83957 3.53177 3.35488 3.04869C3.86966 2.56104 4.46216 2.15272 5.11083 1.83863C5.76285 1.52727 6.46068 1.31029 7.18093 1.19497C7.95748 1.07499 8.74244 1.01016 9.52925 1.001L10.659 0.986328H139.336L140.479 1.00136C141.259 1.01011 142.037 1.07444 142.806 1.19378C143.534 1.31059 144.239 1.52912 144.898 1.84218C146.198 2.47513 147.255 3.4765 147.922 4.70598C148.248 5.32081 148.474 5.97874 148.592 6.65745C148.722 7.39588 148.795 8.14228 148.81 8.8907C148.814 9.22586 148.814 9.58586 148.814 9.94421C148.824 10.388 148.824 10.8103 148.824 11.2363V36.0038C148.824 36.4337 148.824 36.8533 148.814 37.2762C148.814 37.6611 148.814 38.0137 148.808 38.3765C148.794 39.1116 148.722 39.8447 148.594 40.57C148.478 41.2577 148.249 41.9243 147.918 42.5464C147.588 43.1527 147.159 43.7062 146.647 44.1863C146.135 44.6759 145.544 45.0844 144.895 45.3962C144.237 45.7111 143.533 45.9304 142.806 46.0469C142.032 46.1664 141.25 46.2309 140.466 46.2399C140.091 46.2482 139.717 46.2524 139.342 46.2525L137.985 46.255L10.6584 46.2527Z" fill="#181818"/>
<path d="M31.0981 23.9751C31.1116 22.9874 31.3891 22.0189 31.9051 21.1598C32.421 20.3008 33.1584 19.579 34.0487 19.0616C33.4832 18.2981 32.737 17.6697 31.8694 17.2264C31.002 16.7832 30.0372 16.5373 29.0514 16.5081C26.9488 16.2994 24.9105 17.6973 23.8389 17.6973C22.7468 17.6973 21.0972 16.5289 19.3208 16.5633C18.1719 16.5985 17.0521 16.9142 16.0705 17.48C15.089 18.0457 14.2793 18.842 13.7202 19.7915C11.2987 23.7542 13.1049 29.578 15.4247 32.781C16.5853 34.3495 17.9416 36.1014 19.7164 36.0394C21.453 35.9712 22.1016 34.9925 24.1981 34.9925C26.2751 34.9925 26.8837 36.0394 28.6945 35.9998C30.558 35.9712 31.7323 34.4245 32.8521 32.8411C33.6859 31.7234 34.3275 30.4883 34.7533 29.1813C33.6707 28.7484 32.7466 28.0241 32.0967 27.0983C31.4466 26.1724 31.0994 25.0863 31.0981 23.9751ZM27.6779 14.4015C28.694 13.2486 29.1946 11.7667 29.0733 10.2706C27.5209 10.4247 26.087 11.1259 25.0571 12.2346C24.5536 12.7762 24.1679 13.4063 23.9222 14.0889C23.6766 14.7715 23.5755 15.4931 23.6251 16.2126C24.4015 16.2201 25.1698 16.0611 25.8718 15.7474C26.5738 15.4336 27.1913 14.9735 27.6779 14.4015ZM53.0517 32.0687H47.125L45.7018 36.0407H43.1914L48.8051 21.3449H51.4133L57.0268 36.0407H54.4738L53.0517 32.0687ZM47.7389 30.2356H52.4367L50.1209 23.7893H50.056L47.7389 30.2356ZM69.1505 30.6842C69.1505 34.0137 67.265 36.1528 64.4198 36.1528C63.6989 36.1886 62.9821 36.0316 62.3512 35.7C61.7204 35.3684 61.2012 34.8759 60.8528 34.2783H60.7989V39.5852H58.4721V25.3263H60.7244V27.1084H60.7673C61.1315 26.5139 61.6597 26.0237 62.2952 25.69C62.9308 25.3565 63.6502 25.1921 64.3769 25.2143C67.254 25.2143 69.1505 27.364 69.1505 30.6842ZM66.7588 30.6842C66.7588 28.5149 65.5727 27.0887 63.763 27.0887C61.9852 27.0887 60.7894 28.5449 60.7894 30.6841C60.7894 32.843 61.9852 34.2888 63.763 34.2888C65.5727 34.2888 66.7588 32.8732 66.7588 30.6842ZM81.6274 30.6842C81.6274 34.0137 79.742 36.1528 76.8966 36.1528C76.1759 36.1884 75.459 36.0314 74.8282 35.7C74.1974 35.3684 73.6782 34.8757 73.3299 34.2783H73.2761V39.5852H70.9491V25.3263H73.2015V27.1084H73.2443C73.6086 26.5139 74.1366 26.0237 74.7722 25.69C75.4078 25.3565 76.1272 25.1921 76.8538 25.2143C79.731 25.2143 81.6274 27.364 81.6274 30.6842ZM79.2358 30.6842C79.2358 28.5149 78.0497 27.0887 76.24 27.0887C74.462 27.0887 73.2662 28.5449 73.2662 30.6841C73.2662 32.843 74.462 34.2888 76.24 34.2888C78.0497 34.2888 79.2358 32.8732 79.2358 30.6842ZM89.8737 31.9461C90.0461 33.4034 91.5442 34.3604 93.5908 34.3604C95.5521 34.3604 96.9633 33.4034 96.9633 32.0894C96.9633 30.9486 96.1123 30.2656 94.0972 29.7977L92.0819 29.3389C89.2269 28.6871 87.9014 27.425 87.9014 25.3771C87.9014 22.8415 90.2394 21.0999 93.5592 21.0999C96.8446 21.0999 99.097 22.8415 99.1728 25.3771H96.8239C96.6831 23.9105 95.4005 23.0252 93.5261 23.0252C91.6516 23.0252 90.369 23.9209 90.369 25.2245C90.369 26.2636 91.1882 26.875 93.1922 27.3429L94.9053 27.7405C98.0955 28.4535 99.4211 29.6648 99.4211 31.8142C99.4211 34.5637 97.1039 36.2858 93.4184 36.2858C89.9702 36.2858 87.6422 34.604 87.4917 31.9461H89.8737ZM104.443 22.7908V25.3263H106.599V27.068H104.443V32.9746C104.443 33.8923 104.874 34.32 105.822 34.32C106.078 34.3157 106.334 34.2987 106.588 34.269V36.0004C106.161 36.0756 105.728 36.1097 105.295 36.1019C103 36.1019 102.105 35.2873 102.105 33.2093V27.068H100.457V25.3263H102.105V22.7908H104.443ZM107.847 30.6842C107.847 27.3129 109.948 25.1945 113.224 25.1945C116.51 25.1945 118.601 27.3129 118.601 30.6842C118.601 34.0645 116.521 36.1736 113.223 36.1736C109.927 36.1736 107.847 34.0645 107.847 30.6842ZM116.23 30.6842C116.23 28.3716 115.109 27.0066 113.223 27.0066C111.338 27.0066 110.218 28.382 110.218 30.6842C110.218 33.006 111.338 34.3604 113.223 34.3604C115.109 34.3604 116.23 33.006 116.23 30.6842ZM120.52 25.3263H122.739V27.1499H122.793C122.943 26.5804 123.296 26.0771 123.793 25.7246C124.289 25.3721 124.899 25.1918 125.52 25.2143C125.788 25.2133 126.055 25.2409 126.317 25.2963V27.3535C125.978 27.2556 125.625 27.2108 125.271 27.2205C124.933 27.2075 124.596 27.2639 124.283 27.3856C123.971 27.5073 123.689 27.6917 123.459 27.9259C123.229 28.1601 123.055 28.4386 122.949 28.7423C122.843 29.0461 122.808 29.368 122.847 29.6856V36.0407H120.52V25.3263ZM137.045 32.8938C136.732 34.8388 134.728 36.1736 132.164 36.1736C128.866 36.1736 126.819 34.0854 126.819 30.735C126.819 27.3742 128.877 25.1945 132.066 25.1945C135.203 25.1945 137.175 27.2309 137.175 30.4796V31.2331H129.168V31.3659C129.131 31.7603 129.183 32.1574 129.321 32.5312C129.459 32.905 129.68 33.2468 129.968 33.5339C130.257 33.8209 130.607 34.0466 130.994 34.1961C131.382 34.3456 131.799 34.4154 132.218 34.4008C132.768 34.4496 133.319 34.3292 133.791 34.0577C134.263 33.7861 134.629 33.378 134.836 32.8938H137.045ZM129.179 29.696H134.847C134.868 29.3415 134.811 28.9867 134.68 28.6538C134.549 28.3211 134.346 28.0174 134.085 27.7621C133.824 27.5067 133.51 27.3051 133.162 27.1701C132.815 27.0349 132.442 26.969 132.066 26.9766C131.687 26.9745 131.311 27.0433 130.961 27.1791C130.61 27.3148 130.292 27.5149 130.023 27.7678C129.755 28.0207 129.542 28.3213 129.397 28.6522C129.252 28.9831 129.178 29.3379 129.179 29.696ZM47.4472 10.2832C47.9351 10.2501 48.4245 10.3198 48.8805 10.4872C49.3364 10.6546 49.7474 10.9155 50.0835 11.2511C50.4199 11.5868 50.6732 11.9888 50.8252 12.4282C50.9773 12.8676 51.0242 13.3334 50.9627 13.792C50.9627 16.0478 49.6726 17.3446 47.4472 17.3446H44.7485V10.2831L47.4472 10.2832ZM45.9091 16.3459H47.3177C47.6662 16.3656 48.015 16.3115 48.3388 16.1878C48.6625 16.064 48.9528 15.8735 49.1889 15.6302C49.4249 15.387 49.6005 15.097 49.7031 14.7815C49.8055 14.466 49.8323 14.1328 49.7813 13.8063C49.8285 13.4811 49.7992 13.15 49.695 12.8368C49.5909 12.5236 49.415 12.236 49.1794 11.9947C48.9439 11.7533 48.655 11.5642 48.3331 11.4408C48.0112 11.3175 47.6644 11.2629 47.3177 11.2811H45.9091V16.3459ZM52.2734 14.6778C52.238 14.3276 52.2804 13.9743 52.3979 13.6404C52.5154 13.3066 52.7053 12.9997 52.9558 12.7394C53.2061 12.479 53.5112 12.271 53.8516 12.1287C54.192 11.9863 54.5601 11.9128 54.9323 11.9128C55.3045 11.9128 55.6726 11.9863 56.013 12.1287C56.3534 12.271 56.6585 12.479 56.9088 12.7394C57.1591 12.9997 57.3492 13.3066 57.4667 13.6404C57.5842 13.9743 57.6266 14.3276 57.5911 14.6778C57.6273 15.0284 57.5855 15.3823 57.4683 15.7167C57.3513 16.0511 57.1614 16.3588 56.9109 16.6196C56.6605 16.8806 56.3552 17.0891 56.0143 17.2318C55.6736 17.3745 55.305 17.4481 54.9323 17.4481C54.5596 17.4481 54.191 17.3745 53.8501 17.2318C53.5094 17.0891 53.2039 16.8806 52.9536 16.6196C52.7032 16.3588 52.5133 16.0511 52.3961 15.7167C52.2791 15.3823 52.2372 15.0284 52.2734 14.6778ZM56.4467 14.6778C56.4467 13.5226 55.8976 12.8471 54.9341 12.8471C53.9668 12.8471 53.4229 13.5226 53.4229 14.6778C53.4229 15.8422 53.967 16.5125 54.9341 16.5125C55.8976 16.5125 56.4467 15.8376 56.4467 14.6778ZM64.66 17.3446H63.5056L62.3403 13.4198H62.2523L61.0919 17.3446H59.9487L58.3945 12.0155H59.5231L60.5332 16.0818H60.6163L61.7754 12.0155H62.8428L64.0021 16.0818H64.0901L65.0952 12.0155H66.208L64.66 17.3446ZM67.515 12.0157H68.5861V12.8622H68.6692C68.8103 12.5581 69.0482 12.3032 69.3498 12.133C69.6514 11.9628 70.0017 11.8858 70.3518 11.9127C70.6263 11.8932 70.9017 11.9323 71.1579 12.0271C71.414 12.1219 71.6443 12.2699 71.8318 12.4603C72.0191 12.6506 72.1589 12.8784 72.2405 13.1267C72.3222 13.375 72.3436 13.6375 72.3034 13.8947V17.3444H71.1907V14.1589C71.1907 13.3025 70.7969 12.8766 69.9739 12.8766C69.7878 12.8684 69.6017 12.8984 69.429 12.9645C69.2562 13.0305 69.1003 13.1312 68.9726 13.2594C68.8447 13.3877 68.7476 13.5406 68.6882 13.7076C68.6287 13.8746 68.608 14.0518 68.6277 14.227V17.3446H67.515V12.0157ZM74.0764 9.93529H75.189V17.3446H74.0764V9.93529ZM76.7359 14.6778C76.7004 14.3275 76.7427 13.9742 76.8603 13.6403C76.9778 13.3064 77.1679 12.9995 77.4181 12.7391C77.6686 12.4787 77.9738 12.2707 78.3141 12.1283C78.6547 11.986 79.0228 11.9124 79.395 11.9124C79.7674 11.9124 80.1355 11.986 80.4759 12.1283C80.8163 12.2707 81.1216 12.4787 81.3719 12.7391C81.6223 12.9995 81.8124 13.3064 81.9299 13.6403C82.0473 13.9742 82.0898 14.3275 82.0543 14.6778C82.0903 15.0283 82.0484 15.3821 81.9311 15.7165C81.8139 16.0508 81.624 16.3583 81.3735 16.6191C81.123 16.8799 80.8177 17.0883 80.477 17.2308C80.1362 17.3735 79.7677 17.4472 79.395 17.4472C79.0225 17.4472 78.6539 17.3735 78.3132 17.2308C77.9725 17.0883 77.6671 16.8799 77.4167 16.6191C77.1662 16.3583 76.9763 16.0508 76.859 15.7165C76.7418 15.3821 76.6999 15.0283 76.7359 14.6778ZM80.9091 14.6778C80.9091 13.5226 80.36 12.8471 79.3966 12.8471C78.4294 12.8471 77.8853 13.5226 77.8853 14.6778C77.8853 15.8422 78.4294 16.5125 79.3966 16.5125C80.36 16.5125 80.9091 15.8376 80.9091 14.6778ZM83.2255 15.8376C83.2255 14.8783 83.9813 14.3253 85.3227 14.2467L86.8498 14.1635V13.7035C86.8498 13.1406 86.4561 12.8229 85.6957 12.8229C85.0745 12.8229 84.644 13.0384 84.5205 13.4152H83.4432C83.557 12.4998 84.4679 11.9128 85.747 11.9128C87.1604 11.9128 87.9577 12.5779 87.9577 13.7035V17.3446H86.8865V16.5957H86.7985C86.6198 16.8643 86.3688 17.0833 86.0713 17.2303C85.7738 17.3772 85.4404 17.447 85.105 17.4324C84.8684 17.4556 84.6291 17.4317 84.4028 17.3623C84.1764 17.2928 83.968 17.1794 83.7909 17.0291C83.614 16.8788 83.4721 16.6951 83.3747 16.4899C83.2773 16.2848 83.2265 16.0625 83.2255 15.8376ZM86.8498 15.3822V14.9366L85.473 15.0198C84.6966 15.0689 84.3444 15.3186 84.3444 15.7883C84.3444 16.268 84.7846 16.5472 85.3899 16.5472C85.5673 16.5641 85.7463 16.5472 85.9168 16.4974C86.087 16.4475 86.245 16.3659 86.3812 16.2572C86.5173 16.1485 86.629 16.015 86.7095 15.8647C86.79 15.7144 86.8378 15.5503 86.8498 15.3822ZM89.4201 14.6778C89.4201 12.9939 90.3359 11.9272 91.7605 11.9272C92.1127 11.9119 92.4625 11.9917 92.7687 12.1572C93.0748 12.3228 93.3249 12.5673 93.4895 12.8622H93.5726V9.93518H94.6852V17.3444H93.6191V16.5024H93.5311C93.3538 16.7954 93.0951 17.0367 92.783 17.2006C92.471 17.3646 92.1173 17.4446 91.7605 17.4322C90.3261 17.4322 89.4201 16.3656 89.4201 14.6778ZM90.5696 14.6778C90.5696 15.808 91.1333 16.4881 92.0759 16.4881C93.0136 16.4881 93.5934 15.7983 93.5934 14.6823C93.5934 13.5717 93.0076 12.872 92.0759 12.872C91.1393 12.872 90.5696 13.5567 90.5696 14.6778ZM99.289 14.6778C99.2534 14.3276 99.2958 13.9743 99.4133 13.6404C99.5308 13.3066 99.7209 12.9997 99.9712 12.7394C100.221 12.479 100.527 12.271 100.867 12.1287C101.207 11.9863 101.576 11.9128 101.948 11.9128C102.32 11.9128 102.688 11.9863 103.028 12.1287C103.369 12.271 103.674 12.479 103.924 12.7394C104.175 12.9997 104.365 13.3066 104.482 13.6404C104.6 13.9743 104.642 14.3276 104.607 14.6778C104.643 15.0284 104.601 15.3823 104.484 15.7167C104.367 16.0511 104.177 16.3588 103.927 16.6196C103.676 16.8806 103.371 17.0891 103.03 17.2318C102.689 17.3745 102.321 17.4481 101.948 17.4481C101.575 17.4481 101.206 17.3745 100.866 17.2318C100.525 17.0891 100.22 16.8806 99.9691 16.6196C99.7186 16.3588 99.5289 16.0511 99.4117 15.7167C99.2945 15.3823 99.2528 15.0284 99.289 14.6778ZM103.462 14.6778C103.462 13.5226 102.913 12.8471 101.95 12.8471C100.982 12.8471 100.438 13.5226 100.438 14.6778C100.438 15.8422 100.983 16.5125 101.95 16.5125C102.913 16.5125 103.462 15.8376 103.462 14.6778ZM106.1 12.0157H107.171V12.8622H107.254C107.395 12.5581 107.633 12.3032 107.934 12.133C108.236 11.9628 108.586 11.8858 108.936 11.9127C109.211 11.8932 109.486 11.9323 109.743 12.0271C109.999 12.1219 110.229 12.2699 110.416 12.4603C110.604 12.6506 110.744 12.8784 110.825 13.1267C110.907 13.375 110.928 13.6375 110.888 13.8947V17.3444H109.775V14.1589C109.775 13.3025 109.382 12.8766 108.559 12.8766C108.372 12.8684 108.186 12.8984 108.014 12.9645C107.841 13.0305 107.685 13.1312 107.557 13.2594C107.429 13.3877 107.332 13.5406 107.273 13.7076C107.213 13.8746 107.193 14.0518 107.212 14.227V17.3446H106.1L106.1 12.0157ZM117.175 10.6889V12.0399H118.397V12.9257H117.175V15.6658C117.175 16.2241 117.419 16.4685 117.973 16.4685C118.114 16.4682 118.256 16.4599 118.397 16.4441V17.3202C118.197 17.354 117.995 17.372 117.792 17.374C116.554 17.374 116.061 16.9625 116.061 15.9352V12.9257H115.166V12.0398H116.061V10.689L117.175 10.6889ZM119.917 9.93529H121.02V12.872H121.108C121.256 12.5651 121.5 12.3088 121.808 12.1379C122.115 11.9671 122.471 11.89 122.827 11.9173C123.1 11.9033 123.373 11.9463 123.626 12.0434C123.879 12.1405 124.107 12.2893 124.292 12.479C124.478 12.6688 124.617 12.8949 124.699 13.1412C124.781 13.3875 124.805 13.648 124.769 13.9041V17.3446H123.655V14.1635C123.655 13.3122 123.235 12.8812 122.449 12.8812C122.258 12.8664 122.066 12.8913 121.886 12.9541C121.706 13.0168 121.542 13.116 121.407 13.2447C121.272 13.3734 121.168 13.5285 121.103 13.699C121.038 13.8696 121.013 14.0516 121.03 14.2322V17.3446H119.917V9.93529ZM131.257 15.9056C131.105 16.3927 130.778 16.814 130.331 17.0958C129.885 17.3777 129.348 17.502 128.814 17.4473C128.442 17.4566 128.073 17.3894 127.732 17.2503C127.391 17.1112 127.086 16.9036 126.838 16.642C126.59 16.3802 126.405 16.0707 126.297 15.7348C126.188 15.3989 126.158 15.0448 126.209 14.6968C126.16 14.3479 126.19 13.9929 126.298 13.656C126.407 13.3191 126.59 13.0081 126.837 12.7441C127.083 12.4801 127.387 12.2692 127.727 12.1258C128.067 11.9823 128.436 11.9097 128.809 11.9127C130.377 11.9127 131.324 12.9257 131.324 14.5991V14.9661H127.343V15.025C127.325 15.2206 127.351 15.4174 127.419 15.6029C127.487 15.7884 127.595 15.9585 127.736 16.1022C127.877 16.246 128.049 16.3602 128.24 16.4375C128.431 16.5149 128.637 16.5539 128.844 16.5516C129.11 16.5818 129.38 16.5365 129.619 16.4216C129.858 16.3065 130.055 16.1269 130.186 15.9056H131.257ZM127.343 14.1883H130.19C130.204 14.0095 130.179 13.8298 130.115 13.6609C130.051 13.492 129.951 13.3376 129.82 13.2076C129.689 13.0776 129.531 12.9749 129.356 12.906C129.181 12.8372 128.992 12.8037 128.803 12.8079C128.61 12.8056 128.419 12.8397 128.241 12.9083C128.063 12.9768 127.901 13.0785 127.765 13.2071C127.629 13.3358 127.521 13.4889 127.449 13.6574C127.376 13.8259 127.34 14.0064 127.343 14.1883Z" fill="white"/>
</g>
</svg>
